<svg width="28" height="28" viewBox="0 0 28 28" fill="none" xmlns="http://www.w3.org/2000/svg">
<circle cx="14" cy="14" r="14" fill="url(#paint0_radial_6_4)"/>
<path d="M14.18 18H11.996L11.888 14.892L11.876 14.376C11.86 13.896 11.852 13.532 11.852 13.284C11.852 12.684 11.876 12.084 11.924 11.484L10.784 17.136H8.684L7.472 11.484C7.544 12.42 7.58 13.244 7.58 13.956C7.58 14.364 7.576 14.676 7.568 14.892L7.472 18H5.288L5.9 9.66H8.66L9.776 15.192L10.784 9.66H13.556L14.18 18ZM20.3396 17.448C20.8916 17.448 21.3636 17.508 21.7556 17.628C22.1476 17.748 22.5196 17.94 22.8716 18.204L21.5516 19.92C21.1116 19.384 20.6436 18.96 20.1476 18.648C19.6516 18.336 19.0516 18.18 18.3476 18.18C17.5876 18.18 16.9316 18.012 16.3796 17.676C15.8356 17.332 15.4156 16.832 15.1196 16.176C14.8236 15.52 14.6756 14.736 14.6756 13.824C14.6756 12.92 14.8236 12.14 15.1196 11.484C15.4236 10.828 15.8596 10.324 16.4276 9.972C17.0036 9.62 17.6916 9.444 18.4916 9.444C19.6996 9.444 20.6396 9.828 21.3116 10.596C21.9836 11.364 22.3196 12.44 22.3196 13.824C22.3196 14.744 22.1316 15.496 21.7556 16.08C21.3876 16.664 20.9156 17.12 20.3396 17.448ZM16.9796 13.824C16.9796 14.816 17.1036 15.532 17.3516 15.972C17.5996 16.404 17.9796 16.62 18.4916 16.62C19.0196 16.62 19.4036 16.404 19.6436 15.972C19.8836 15.54 20.0036 14.824 20.0036 13.824C20.0036 12.832 19.8836 12.12 19.6436 11.688C19.4036 11.256 19.0196 11.04 18.4916 11.04C17.9716 11.04 17.5876 11.256 17.3396 11.688C17.0996 12.12 16.9796 12.832 16.9796 13.824Z" fill="#BABABA"/>
<defs>
<radialGradient id="paint0_radial_6_4" cx="0" cy="0" r="1" gradientUnits="userSpaceOnUse" gradientTransform="translate(14 14) rotate(90) scale(29.5)">
<stop stop-color="#171717"/>
<stop offset="1" stop-color="#7A7A7A"/>
</radialGradient>
</defs>
</svg>
