<svg width="376" height="60" viewBox="0 0 376 60" fill="none" xmlns="http://www.w3.org/2000/svg">
<path d="M44.9 50H33.98L33.44 34.46L33.38 31.88C33.3 29.48 33.26 27.66 33.26 26.42C33.26 23.42 33.38 20.42 33.62 17.42L27.92 45.68H17.42L11.36 17.42C11.72 22.1 11.9 26.22 11.9 29.78C11.9 31.82 11.88 33.38 11.84 34.46L11.36 50H0.44L3.5 8.3H17.3L22.88 35.96L27.92 8.3H41.78L44.9 50ZM75.3838 40.16C75.3838 41.32 75.5238 42.18 75.8038 42.74C76.1238 43.3 76.6638 43.72 77.4238 44L75.2638 50.9C73.2238 50.74 71.5438 50.32 70.2238 49.64C68.9438 48.96 67.9038 47.88 67.1038 46.4C65.0638 49.52 61.8438 51.08 57.4438 51.08C54.2838 51.08 51.7438 50.16 49.8238 48.32C47.9438 46.44 47.0038 44.02 47.0038 41.06C47.0038 37.54 48.3038 34.84 50.9038 32.96C53.5038 31.08 57.2638 30.14 62.1838 30.14H64.9438V29.06C64.9438 27.34 64.5838 26.18 63.8638 25.58C63.1438 24.94 61.8438 24.62 59.9638 24.62C58.9638 24.62 57.7038 24.78 56.1838 25.1C54.7038 25.38 53.1838 25.78 51.6238 26.3L49.2838 19.4C51.2038 18.6 53.2638 18 55.4638 17.6C57.6638 17.16 59.7038 16.94 61.5838 16.94C66.3838 16.94 69.8838 17.9 72.0838 19.82C74.2838 21.7 75.3838 24.6 75.3838 28.52V40.16ZM60.6838 43.58C61.5638 43.58 62.3638 43.36 63.0838 42.92C63.8438 42.44 64.4638 41.8 64.9438 41V35.84H63.1438C61.2238 35.84 59.8038 36.2 58.8838 36.92C57.9638 37.6 57.5038 38.64 57.5038 40.04C57.5038 41.12 57.7838 41.98 58.3438 42.62C58.9038 43.26 59.6838 43.58 60.6838 43.58ZM99.612 17.06C100.652 17.06 101.732 17.24 102.852 17.6L101.112 27.92C100.072 27.6 99.112 27.44 98.232 27.44C96.432 27.44 95.052 28.06 94.092 29.3C93.172 30.5 92.452 32.34 91.932 34.82V50H81.252V18.02H90.552L91.512 24.08C92.152 21.96 93.212 20.26 94.692 18.98C96.212 17.7 97.852 17.06 99.612 17.06ZM117.612 16.94C119.932 16.94 122.012 17.28 123.852 17.96C125.692 18.64 127.372 19.66 128.892 21.02L124.392 27.26C122.552 25.78 120.612 25.04 118.572 25.04C116.612 25.04 115.132 25.76 114.132 27.2C113.132 28.6 112.632 30.94 112.632 34.22C112.632 37.42 113.132 39.66 114.132 40.94C115.132 42.18 116.572 42.8 118.452 42.8C119.452 42.8 120.372 42.64 121.212 42.32C122.052 42 123.072 41.46 124.272 40.7L128.892 47.24C125.812 49.8 122.152 51.08 117.912 51.08C114.552 51.08 111.632 50.38 109.152 48.98C106.712 47.58 104.832 45.62 103.512 43.1C102.192 40.54 101.532 37.6 101.532 34.28C101.532 30.92 102.192 27.94 103.512 25.34C104.832 22.7 106.692 20.64 109.092 19.16C111.532 17.68 114.372 16.94 117.612 16.94ZM159.071 33.5C159.071 33.74 159.011 34.94 158.891 37.1H139.331C139.611 39.54 140.291 41.22 141.371 42.14C142.491 43.02 144.071 43.46 146.111 43.46C147.311 43.46 148.491 43.24 149.651 42.8C150.851 42.32 152.151 41.6 153.551 40.64L157.871 46.52C156.191 47.92 154.271 49.04 152.111 49.88C149.951 50.68 147.611 51.08 145.091 51.08C139.651 51.08 135.511 49.56 132.671 46.52C129.871 43.44 128.471 39.32 128.471 34.16C128.471 30.92 129.051 28 130.211 25.4C131.411 22.8 133.171 20.74 135.491 19.22C137.811 17.7 140.611 16.94 143.891 16.94C148.571 16.94 152.271 18.4 154.991 21.32C157.711 24.2 159.071 28.26 159.071 33.5ZM148.571 30.5C148.531 28.38 148.171 26.74 147.491 25.58C146.811 24.42 145.671 23.84 144.071 23.84C142.591 23.84 141.471 24.36 140.711 25.4C139.951 26.44 139.471 28.26 139.271 30.86H148.571V30.5ZM171.892 51.08C168.892 51.08 166.572 50.24 164.932 48.56C163.292 46.88 162.472 44.46 162.472 41.3V5.42L173.152 4.34V40.94C173.152 42.1 173.672 42.68 174.712 42.68C175.152 42.68 175.612 42.6 176.092 42.44L178.072 50C176.432 50.72 174.372 51.08 171.892 51.08ZM194.209 16.94C199.209 16.94 203.129 18.44 205.969 21.44C208.809 24.44 210.229 28.64 210.229 34.04C210.229 37.48 209.589 40.48 208.309 43.04C207.029 45.6 205.169 47.58 202.729 48.98C200.329 50.38 197.489 51.08 194.209 51.08C189.209 51.08 185.289 49.58 182.449 46.58C179.609 43.58 178.189 39.38 178.189 33.98C178.189 30.54 178.829 27.54 180.109 24.98C181.389 22.42 183.229 20.44 185.629 19.04C188.069 17.64 190.929 16.94 194.209 16.94ZM194.209 24.68C192.489 24.68 191.209 25.44 190.369 26.96C189.569 28.44 189.169 30.78 189.169 33.98C189.169 37.3 189.569 39.7 190.369 41.18C191.209 42.62 192.489 43.34 194.209 43.34C195.929 43.34 197.189 42.6 197.989 41.12C198.829 39.6 199.249 37.24 199.249 34.04C199.249 30.76 198.829 28.38 197.989 26.9C197.189 25.42 195.929 24.68 194.209 24.68ZM254.12 47.24C256.88 47.24 259.24 47.54 261.2 48.14C263.16 48.74 265.02 49.7 266.78 51.02L260.18 59.6C257.98 56.92 255.64 54.8 253.16 53.24C250.68 51.68 247.68 50.9 244.16 50.9C240.36 50.9 237.08 50.06 234.32 48.38C231.6 46.66 229.5 44.16 228.02 40.88C226.54 37.6 225.8 33.68 225.8 29.12C225.8 24.6 226.54 20.7 228.02 17.42C229.54 14.14 231.72 11.62 234.56 9.86C237.44 8.1 240.88 7.22 244.88 7.22C250.92 7.22 255.62 9.14 258.98 12.98C262.34 16.82 264.02 22.2 264.02 29.12C264.02 33.72 263.08 37.48 261.2 40.4C259.36 43.32 257 45.6 254.12 47.24ZM237.32 29.12C237.32 34.08 237.94 37.66 239.18 39.86C240.42 42.02 242.32 43.1 244.88 43.1C247.52 43.1 249.44 42.02 250.64 39.86C251.84 37.7 252.44 34.12 252.44 29.12C252.44 24.16 251.84 20.6 250.64 18.44C249.44 16.28 247.52 15.2 244.88 15.2C242.28 15.2 240.36 16.28 239.12 18.44C237.92 20.6 237.32 24.16 237.32 29.12ZM296.026 50H286.726L286.306 46.22C284.066 49.46 280.886 51.08 276.766 51.08C273.806 51.08 271.566 50.2 270.046 48.44C268.566 46.64 267.826 44.16 267.826 41V18.02H278.506V39.62C278.506 40.98 278.706 41.94 279.106 42.5C279.546 43.02 280.186 43.28 281.026 43.28C281.786 43.28 282.526 43.02 283.246 42.5C284.006 41.94 284.706 41.14 285.346 40.1V18.02H296.026V50ZM312.366 18.02V50H301.686V18.02H312.366ZM307.026 0.799997C308.826 0.799997 310.286 1.36 311.406 2.48C312.566 3.6 313.146 5 313.146 6.68C313.146 8.36 312.566 9.76 311.406 10.88C310.286 12 308.826 12.56 307.026 12.56C305.226 12.56 303.746 12 302.586 10.88C301.466 9.76 300.906 8.36 300.906 6.68C300.906 5 301.466 3.6 302.586 2.48C303.746 1.36 305.226 0.799997 307.026 0.799997ZM337.82 16.94C340.54 16.94 342.68 17.78 344.24 19.46C345.8 21.14 346.58 23.5 346.58 26.54V50H335.9V28.46C335.9 27.06 335.7 26.1 335.3 25.58C334.9 25.02 334.3 24.74 333.5 24.74C331.82 24.74 330.22 25.96 328.7 28.4V50H318.02V18.02H327.32L328.1 21.62C329.54 20.02 331.04 18.84 332.6 18.08C334.16 17.32 335.9 16.94 337.82 16.94ZM373.172 48.44C371.932 49.32 370.492 49.98 368.852 50.42C367.212 50.86 365.612 51.08 364.052 51.08C356.652 51.08 352.952 47 352.952 38.84V25.34H348.812V18.02H352.952V11.24L363.632 9.98V18.02H370.892L369.812 25.34H363.632V38.72C363.632 40.16 363.852 41.18 364.292 41.78C364.772 42.38 365.472 42.68 366.392 42.68C367.512 42.68 368.592 42.38 369.632 41.78L373.172 48.44ZM385.566 18.02V50H374.886V18.02H385.566ZM380.226 0.799997C382.026 0.799997 383.486 1.36 384.606 2.48C385.766 3.6 386.346 5 386.346 6.68C386.346 8.36 385.766 9.76 384.606 10.88C383.486 12 382.026 12.56 380.226 12.56C378.426 12.56 376.946 12 375.786 10.88C374.666 9.76 374.106 8.36 374.106 6.68C374.106 5 374.666 3.6 375.786 2.48C376.946 1.36 378.426 0.799997 380.226 0.799997ZM400.34 51.08C397.34 51.08 395.02 50.24 393.38 48.56C391.74 46.88 390.92 44.46 390.92 41.3V5.42L401.6 4.34V40.94C401.6 42.1 402.12 42.68 403.16 42.68C403.6 42.68 404.06 42.6 404.54 42.44L406.52 50C404.88 50.72 402.82 51.08 400.34 51.08ZM419.23 18.02V50H408.55V18.02H419.23ZM413.89 0.799997C415.69 0.799997 417.15 1.36 418.27 2.48C419.43 3.6 420.01 5 420.01 6.68C420.01 8.36 419.43 9.76 418.27 10.88C417.15 12 415.69 12.56 413.89 12.56C412.09 12.56 410.61 12 409.45 10.88C408.33 9.76 407.77 8.36 407.77 6.68C407.77 5 408.33 3.6 409.45 2.48C410.61 1.36 412.09 0.799997 413.89 0.799997ZM451.403 40.16C451.403 41.32 451.543 42.18 451.823 42.74C452.143 43.3 452.683 43.72 453.443 44L451.283 50.9C449.243 50.74 447.563 50.32 446.243 49.64C444.963 48.96 443.923 47.88 443.123 46.4C441.083 49.52 437.863 51.08 433.463 51.08C430.303 51.08 427.763 50.16 425.843 48.32C423.963 46.44 423.023 44.02 423.023 41.06C423.023 37.54 424.323 34.84 426.923 32.96C429.523 31.08 433.283 30.14 438.203 30.14H440.963V29.06C440.963 27.34 440.603 26.18 439.883 25.58C439.163 24.94 437.863 24.62 435.983 24.62C434.983 24.62 433.723 24.78 432.203 25.1C430.723 25.38 429.203 25.78 427.643 26.3L425.303 19.4C427.223 18.6 429.283 18 431.483 17.6C433.683 17.16 435.723 16.94 437.603 16.94C442.403 16.94 445.903 17.9 448.103 19.82C450.303 21.7 451.403 24.6 451.403 28.52V40.16ZM436.703 43.58C437.583 43.58 438.383 43.36 439.103 42.92C439.863 42.44 440.483 41.8 440.963 41V35.84H439.163C437.243 35.84 435.823 36.2 434.903 36.92C433.983 37.6 433.523 38.64 433.523 40.04C433.523 41.12 433.803 41.98 434.363 42.62C434.923 43.26 435.703 43.58 436.703 43.58ZM477.072 16.94C479.792 16.94 481.932 17.78 483.492 19.46C485.052 21.14 485.832 23.5 485.832 26.54V50H475.152V28.46C475.152 27.06 474.952 26.1 474.552 25.58C474.152 25.02 473.552 24.74 472.752 24.74C471.072 24.74 469.472 25.96 467.952 28.4V50H457.272V18.02H466.572L467.352 21.62C468.792 20.02 470.292 18.84 471.852 18.08C473.412 17.32 475.152 16.94 477.072 16.94ZM505.583 16.94C510.583 16.94 514.503 18.44 517.343 21.44C520.183 24.44 521.603 28.64 521.603 34.04C521.603 37.48 520.963 40.48 519.683 43.04C518.403 45.6 516.543 47.58 514.103 48.98C511.703 50.38 508.863 51.08 505.583 51.08C500.583 51.08 496.663 49.58 493.823 46.58C490.983 43.58 489.563 39.38 489.563 33.98C489.563 30.54 490.203 27.54 491.483 24.98C492.763 22.42 494.603 20.44 497.003 19.04C499.443 17.64 502.303 16.94 505.583 16.94ZM505.583 24.68C503.863 24.68 502.583 25.44 501.743 26.96C500.943 28.44 500.543 30.78 500.543 33.98C500.543 37.3 500.943 39.7 501.743 41.18C502.583 42.62 503.863 43.34 505.583 43.34C507.303 43.34 508.563 42.6 509.363 41.12C510.203 39.6 510.623 37.24 510.623 34.04C510.623 30.76 510.203 28.38 509.363 26.9C508.563 25.42 507.303 24.68 505.583 24.68Z" fill="#141414"/>
</svg>
